<?xml version="1.0" encoding="UTF-8" standalone="no"?>
<svg
   width="493"
   height="58"
   id="svg2"
   version="1.1"
   inkscape:version="1.4-dev (6fe04ba, 2023-06-30, custom)"
   sodipodi:docname="banner.svg"
   inkscape:output_extension="org.inkscape.output.svg.inkscape"
   inkscape:export-filename="banner.png"
   inkscape:export-xdpi="96"
   inkscape:export-ydpi="96"
   xmlns:inkscape="http://www.inkscape.org/namespaces/inkscape"
   xmlns:sodipodi="http://sodipodi.sourceforge.net/DTD/sodipodi-0.dtd"
   xmlns="http://www.w3.org/2000/svg"
   xmlns:svg="http://www.w3.org/2000/svg"
   xmlns:rdf="http://www.w3.org/1999/02/22-rdf-syntax-ns#"
   xmlns:cc="http://creativecommons.org/ns#"
   xmlns:dc="http://purl.org/dc/elements/1.1/">
  <defs
     id="defs4" />
  <sodipodi:namedview
     id="base"
     pagecolor="#ffffff"
     bordercolor="#666666"
     borderopacity="1.0"
     inkscape:pageopacity="0.0"
     inkscape:pageshadow="2"
     inkscape:zoom="1"
     inkscape:cx="161"
     inkscape:cy="-95"
     inkscape:document-units="px"
     inkscape:current-layer="layer1"
     showgrid="false"
     inkscape:window-width="1858"
     inkscape:window-height="1177"
     inkscape:window-x="1912"
     inkscape:window-y="-8"
     inkscape:window-maximized="1"
     fit-margin-top="0"
     fit-margin-left="0"
     fit-margin-right="0"
     fit-margin-bottom="0"
     inkscape:document-rotation="0"
     inkscape:snap-center="true"
     inkscape:snap-bbox="true"
     inkscape:snap-bbox-midpoints="true"
     inkscape:snap-nodes="true"
     inkscape:bbox-paths="true"
     inkscape:showpageshadow="2"
     inkscape:pagecheckerboard="0"
     inkscape:deskcolor="#d1d1d1" />
  <metadata
     id="metadata7">
    <rdf:RDF>
      <cc:Work
         rdf:about="">
        <dc:format>image/svg+xml</dc:format>
        <dc:type
           rdf:resource="http://purl.org/dc/dcmitype/StillImage" />
        <dc:title />
      </cc:Work>
    </rdf:RDF>
  </metadata>
  <g
     inkscape:label="Layer 1"
     inkscape:groupmode="layer"
     id="layer1"
     transform="translate(0,-994.36218)">
    <rect
       style="fill:#ffffff;fill-opacity:1;stroke:none"
       id="rect2830"
       width="493"
       height="58"
       x="-0.36694327"
       y="994.3913" />
    <path
       style="fill:#000000;stroke-width:0.0200902"
       d="M 38.33588,1041.7367 38.13537,1041.7077 37.95163,1041.6567 37.7679,1041.6057 37.59775,1041.5237 37.4276,1041.4417 37.27223,1041.2897 37.11685,1041.1376 37.05335,1041.0079 36.98985,1040.8781 36.92925,1040.613 36.86865,1040.3479 36.81515,1040.1939 36.76165,1040.0399 36.69305,1039.8963 36.62445,1039.7527 36.51987,1039.5983 36.4153,1039.4441 36.27055,1039.3026 36.12581,1039.1612 35.98622,1039.0692 35.84663,1038.9772 35.70507,1038.9072 35.5635,1038.8372 35.38385,1038.7742 35.2042,1038.7112 34.96927,1038.6532 34.73432,1038.5952 34.27929,1038.5122 33.82425,1038.4302 33.6119,1038.3812 33.39955,1038.3322 33.23776,1038.2792 33.07597,1038.2262 32.94486,1038.1682 32.81377,1038.1102 32.64875,1038.0018 32.48373,1037.8935 32.37723,1037.7785 32.27072,1037.6637 32.21492,1037.5473 32.15912,1037.431 32.14562,1037.334 32.13212,1037.237 32.15572,1037.1209 32.17932,1037.0048 32.24842,1036.8651 32.31752,1036.7254 32.44832,1036.5535 32.57913,1036.3815 32.9388,1036.0082 33.29847,1035.6349 33.47271,1035.4345 33.64694,1035.2342 33.72724,1035.1017 33.80754,1034.9691 33.85024,1034.8561 33.89304,1034.743 33.90624,1034.645 33.91944,1034.547 33.88634,1034.4194 33.85314,1034.2916 33.79144,1034.1966 33.72964,1034.1016 33.60499,1033.9877 33.48035,1033.8738 33.31137,1033.765 33.1424,1033.6563 32.87656,1033.5229 32.61072,1033.3894 32.31026,1033.2647 32.00979,1033.1399 31.63276,1032.9993 31.25573,1032.8586 29.41536,1032.2548 27.57499,1031.6511 27.13006,1031.4862 26.68514,1031.3213 26.36155,1031.1831 26.03797,1031.0449 25.8054,1030.9246 25.57282,1030.8043 25.40102,1030.6916 25.22922,1030.579 25.10534,1030.4568 24.98146,1030.3345 24.94646,1030.2306 24.91146,1030.1267 24.92526,1030.0527 24.93906,1029.9787 24.99196,1029.8827 25.04486,1029.7867 25.16718,1029.6749 25.28948,1029.5631 25.45127,1029.4591 25.61307,1029.3553 25.83727,1029.2337 26.06146,1029.1121 26.81145,1028.7641 27.56145,1028.4161 27.79058,1028.2916 28.01971,1028.1671 28.18878,1028.0566 28.35785,1027.946 28.47856,1027.8287 28.59928,1027.7115 28.64798,1027.6081 28.69668,1027.5047 28.69688,1027.4287 28.69708,1027.3527 28.66618,1027.2797 28.63528,1027.2067 28.58628,1027.1427 28.53728,1027.0787 28.31895,1026.9847 28.1006,1026.8907 27.86111,1026.8027 27.62163,1026.7147 27.2544,1026.6049 26.88717,1026.4949 26.24001,1026.3374 25.59285,1026.1797 24.84068,1026.0078 24.08852,1025.8359 23.71608,1025.7379 23.34364,1025.6399 23.04246,1025.5479 22.74129,1025.4559 22.44804,1025.3452 22.15479,1025.2346 21.90886,1025.1158 21.66292,1024.997 21.44969,1024.8601 21.23646,1024.7231 21.06114,1024.5571 20.88581,1024.3911 20.79781,1024.2696 20.70981,1024.148 20.63911,1024.0001 20.56841,1023.8522 20.53551,1023.7325 20.50261,1023.6127 20.49221,1023.3633 20.48181,1023.1138 20.51521,1022.9243 20.54861,1022.7348 20.63251,1022.4852 20.71641,1022.2357 20.88421,1021.9042 21.05201,1021.5727 21.31376,1021.1857 21.5755,1020.7987 21.74918,1020.5791 21.92286,1020.3597 28.97437,1013.2383 36.02588,1006.1171 36.20945,1005.9714 36.39303,1005.8257 36.56539,1005.7148 36.73775,1005.6039 36.93556,1005.5036 37.13336,1005.4034 37.33922,1005.3244 37.54508,1005.2454 37.72705,1005.1934 37.90902,1005.1414 38.18205,1005.0894 38.45507,1005.0374 38.90181,1005.0274 39.34855,1005.0174 39.61975,1005.0514 39.89096,1005.0854 40.1981,1005.1624 40.50525,1005.2394 40.7404,1005.3304 40.97554,1005.4204 41.19449,1005.531 41.41343,1005.6415 41.62294,1005.779 41.83245,1005.9167 41.99274,1006.0429 42.15303,1006.1691 49.41135,1013.4895 56.66966,1020.8099 56.90341,1021.0534 57.13714,1021.297 57.30825,1021.5066 57.47935,1021.7161 57.63162,1021.9426 57.7839,1022.1691 57.90138,1022.3985 58.01886,1022.6279 58.09126,1022.8506 58.16366,1023.0733 58.19366,1023.2729 58.22366,1023.4724 58.22387,1023.5857 58.22407,1023.699 58.20237,1023.853 58.18067,1024.0068 58.13087,1024.1764 58.08107,1024.346 57.98907,1024.527 57.89707,1024.7081 57.79643,1024.8517 57.69579,1024.9954 57.54026,1025.1632 57.38472,1025.331 57.23305,1025.4664 57.08136,1025.6018 56.8589,1025.7665 56.63644,1025.9312 56.41398,1026.0701 56.19152,1026.2089 56.00438,1026.3128 55.81723,1026.4166 55.47177,1026.5872 55.12629,1026.7579 54.82972,1026.888 54.53316,1027.0181 54.0579,1027.2046 53.58264,1027.391 53.09727,1027.5646 52.61189,1027.7381 50.77152,1028.3415 48.93116,1028.9451 48.48919,1029.1086 48.04723,1029.2721 47.76113,1029.3927 47.47504,1029.5135 47.18265,1029.6562 46.89026,1029.799 46.81176,1029.876 46.73326,1029.953 46.69506,1030.036 46.65686,1030.119 46.65652,1030.2299 46.65618,1030.3407 46.70818,1030.4436 46.76008,1030.5464 46.87499,1030.6628 46.98991,1030.7791 47.13148,1030.8828 47.27305,1030.9864 47.57641,1031.1637 47.87977,1031.3409 48.39547,1031.6196 48.91118,1031.8983 49.1025,1032.0153 49.29382,1032.1324 49.48958,1032.2779 49.68534,1032.4234 49.81927,1032.5662 49.95319,1032.7089 50.02589,1032.8541 50.09869,1032.9994 50.10899,1033.1263 50.11929,1033.2532 50.04679,1033.4668 49.97429,1033.6805 49.87253,1033.8814 49.77076,1034.0823 49.69726,1034.1962 49.62376,1034.3101 49.48773,1034.4701 49.35169,1034.6301 49.21223,1034.7421 49.07276,1034.8541 48.95249,1034.9301 48.83222,1035.0061 48.64913,1035.0911 48.46605,1035.1761 48.22213,1035.2561 47.9782,1035.3361 47.55474,1035.4373 47.13127,1035.5386 46.74702,1035.6306 46.36277,1035.7226 46.01896,1035.8321 45.67516,1035.9417 45.37551,1036.0683 45.07586,1036.195 44.84969,1036.3172 44.62352,1036.4393 44.34039,1036.6257 44.05725,1036.812 43.91577,1036.9244 43.77431,1037.0369 43.58018,1037.2049 43.38604,1037.373 43.23376,1037.5302 43.08147,1037.6876 43.02607,1037.7806 42.97067,1037.8736 42.95157,1037.9576 42.93237,1038.0416 42.95657,1038.1266 42.98067,1038.2116 43.05957,1038.3006 43.13847,1038.3896 43.2641,1038.4716 43.38974,1038.5536 43.76903,1038.7416 44.14832,1038.9295 44.26735,1039.0085 44.38637,1039.0875 44.45697,1039.1685 44.52757,1039.2495 44.55227,1039.3365 44.57697,1039.4235 44.56227,1039.4895 44.54757,1039.5565 44.50137,1039.6455 44.45507,1039.7355 44.38267,1039.8185 44.31027,1039.9015 44.10274,1040.0402 43.8952,1040.179 43.66985,1040.3103 43.4445,1040.4417 43.17437,1040.5815 42.90423,1040.7214 42.6211,1040.845 42.33796,1040.9686 42.05721,1041.0767 41.77644,1041.1849 41.50339,1041.2759 41.23033,1041.3649 40.90441,1041.4549 40.57848,1041.5439 40.23468,1041.6119 39.89088,1041.6789 39.63808,1041.7119 39.38528,1041.7449 38.96058,1041.7549 38.53588,1041.7649 38.33536,1041.7359 Z M 39.45658,1030.3126 39.54758,1030.2656 39.66892,1030.1856 39.79027,1030.1056 39.91878,1029.9847 40.04729,1029.8637 40.09739,1029.7657 40.14759,1029.6677 40.13539,1029.6027 40.12309,1029.5377 40.08809,1029.5067 40.05309,1029.4757 40.00059,1029.4567 39.94819,1029.4377 39.53554,1029.3647 39.12288,1029.2917 38.05102,1029.0822 36.97915,1028.8727 36.16009,1028.7036 35.34103,1028.5343 34.56241,1028.3642 33.78379,1028.1939 33.31609,1028.0768 32.84839,1027.9599 32.68915,1027.9069 32.52991,1027.8539 32.4109,1027.8639 32.2919,1027.8739 32.2664,1027.9079 32.2409,1027.9419 32.2514,1027.9819 32.2619,1028.0219 32.36262,1028.1089 32.46335,1028.1959 32.67235,1028.3187 32.88135,1028.4416 33.25165,1028.6185 33.62196,1028.7953 34.08203,1028.9864 34.54211,1029.1774 34.98199,1029.3403 35.42188,1029.5031 35.83358,1029.6405 36.24529,1029.7779 36.53131,1029.8659 36.81732,1029.9539 37.19146,1030.0543 37.5656,1030.1546 37.88919,1030.2246 38.21276,1030.2946 38.47567,1030.3346 38.73858,1030.3746 H 39.05205 39.36552 Z M 39.81525,1015.5851 41.57945,1014.4843 H 41.59075 41.60205 L 42.73538,1015.0748 43.86872,1015.6653 43.87472,1015.6553 43.88072,1015.6453 44.1456,1014.0675 44.41046,1012.4896 V 1012.4756 1012.4616 L 45.77913,1013.5424 47.14779,1014.6232 47.19459,1014.5652 47.24139,1014.5072 47.28419,1014.3875 47.32689,1014.2677 47.33719,1014.0083 47.34749,1013.7488 47.31329,1013.5696 47.27909,1013.3905 47.22009,1013.2403 47.16109,1013.0902 47.08159,1012.9726 47.00209,1012.8549 44.29629,1010.142 41.59047,1007.4292 41.37712,1007.2261 41.16378,1007.0231 40.98207,1006.9009 40.80034,1006.7786 40.61113,1006.6856 40.42193,1006.5916 40.213,1006.5226 40.00408,1006.4536 39.80561,1006.4096 39.60713,1006.3656 H 39.14199 38.67684 L 38.47162,1006.4096 38.26638,1006.4536 38.05873,1006.5246 37.85108,1006.5956 37.68758,1006.6766 37.52408,1006.7576 37.38251,1006.8476 37.24094,1006.9386 37.09938,1007.0536 36.95781,1007.1686 34.98531,1009.1214 33.0128,1011.0741 32.55678,1011.5432 32.10076,1012.0122 31.7481,1012.3829 31.39543,1012.7535 31.30233,1012.8618 31.20923,1012.9702 31.11433,1013.1099 31.01943,1013.2495 30.94213,1013.4092 30.86473,1013.5689 30.81393,1013.7285 30.76313,1013.8883 30.74023,1014.0778 30.71733,1014.2674 30.73863,1014.4171 30.75993,1014.5668 30.78253,1014.6368 30.80513,1014.7068 30.86263,1014.8202 30.92013,1014.9337 31.02151,1015.0337 31.12288,1015.1338 31.24942,1015.1928 31.37595,1015.2518 31.48313,1015.2738 31.59029,1015.2958 H 33.17181 34.75333 L 35.72204,1013.6392 36.69075,1011.9826 36.70485,1011.9726 36.71895,1011.9626 37.28029,1014.1921 37.84162,1016.4217 37.88262,1016.5868 37.92362,1016.7519 37.98682,1016.7149 38.05002,1016.6779 39.81424,1015.5772 Z M 29.04923,1037.4376 28.90548,1037.4026 28.75599,1037.3326 28.6065,1037.2626 28.48081,1037.1686 28.35512,1037.0746 28.23141,1036.9414 28.1077,1036.8082 28.0396,1036.688 27.9715,1036.5678 27.9401,1036.449 27.9087,1036.3302 27.90894,1036.2392 27.90918,1036.1492 27.93628,1036.0492 27.96338,1035.9492 28.01648,1035.8461 28.06958,1035.7429 28.17016,1035.6236 28.27074,1035.5044 28.44576,1035.3748 28.62078,1035.2451 28.81587,1035.1451 29.01097,1035.0451 29.20801,1034.9731 29.40505,1034.9011 29.61248,1034.8511 29.81992,1034.8011 30.04848,1034.7711 30.27703,1034.7421 H 30.4934 30.70977 L 30.89178,1034.7641 31.07381,1034.7861 31.2457,1034.8341 31.4176,1034.8821 31.60571,1034.9751 31.79381,1035.0671 31.94625,1035.2076 32.09869,1035.3481 32.08729,1035.4051 32.07579,1035.4611 31.98289,1035.6441 31.88999,1035.827 31.79789,1035.9679 31.70589,1036.1087 31.57918,1036.2684 31.45247,1036.428 31.25313,1036.6187 31.05378,1036.8093 30.96278,1036.8803 30.87178,1036.9513 30.72011,1037.0513 30.56843,1037.1513 30.41675,1037.2273 30.26507,1037.3023 30.13361,1037.3513 30.00216,1037.4003 29.83025,1037.4383 29.65835,1037.4763 H 29.42578 29.19321 L 29.04946,1037.4413 Z M 51.61111,1037.0091 51.49988,1036.9831 51.41898,1036.9571 51.33808,1036.9311 51.19662,1036.8591 51.05518,1036.7871 50.92159,1036.6628 50.788,1036.5384 50.7262,1036.4233 50.6644,1036.3081 50.6321,1036.1997 50.5998,1036.0913 V 1035.9594 1035.8275 L 50.6309,1035.7086 50.662,1035.5897 50.7224,1035.4616 50.7828,1035.3336 50.8563,1035.2321 50.9298,1035.1306 51.03683,1035.0098 51.14387,1034.8889 51.19387,1034.8619 51.24377,1034.8349 51.39199,1034.8699 51.54019,1034.9049 51.71209,1034.9639 51.884,1035.0229 52.04579,1035.1029 52.20758,1035.1829 52.29858,1035.2439 52.38958,1035.3039 52.51833,1035.4054 52.64708,1035.5069 52.75713,1035.6367 52.86718,1035.7664 52.95698,1035.9459 53.04678,1036.1255 53.07118,1036.2704 53.09558,1036.4152 53.07128,1036.5298 53.04698,1036.6445 53.01108,1036.6945 52.97518,1036.7445 52.78354,1036.8385 52.59191,1036.9325 52.43011,1036.9755 52.26832,1037.0185 51.9953,1037.0285 51.72228,1037.0385 Z M 53.94696,1034.0421 53.74473,1034.0251 53.49193,1033.9931 53.23913,1033.9611 52.98179,1033.9121 52.72443,1033.8631 52.51663,1033.8021 52.30883,1033.7411 52.16727,1033.6741 52.0257,1033.6071 51.9609,1033.5441 51.8961,1033.4811 51.8836,1033.4421 51.8711,1033.4031 51.9057,1033.2988 51.9403,1033.1944 52.011,1033.0547 52.0817,1032.915 52.1607,1032.7999 52.2397,1032.685 52.36368,1032.5543 52.48765,1032.4234 52.66106,1032.2948 52.83448,1032.1662 53.04856,1032.0586 53.26265,1031.9511 53.48989,1031.8791 53.71714,1031.8061 53.95331,1031.7641 54.18947,1031.7221 H 54.53328 54.87708 L 55.03888,1031.7471 55.20066,1031.7721 55.42898,1031.8311 55.65729,1031.8901 55.83908,1031.9671 56.02087,1032.0451 56.19564,1032.1519 56.37042,1032.2587 56.56704,1032.4483 56.76368,1032.6379 56.86118,1032.7876 56.95858,1032.9372 57.02478,1033.0869 57.09098,1033.2366 57.07838,1033.3066 57.06578,1033.3766 57.02998,1033.4466 56.99418,1033.5166 56.89008,1033.6126 56.78597,1033.7086 56.62019,1033.7856 56.45442,1033.8626 56.25897,1033.9156 56.06352,1033.9686 55.79382,1034.0106 55.52413,1034.0526 54.83651,1034.0626 54.14891,1034.0726 53.94667,1034.0556 Z"
       id="path24070" />
    <text
       xml:space="preserve"
       style="font-style:normal;font-variant:normal;font-weight:normal;font-stretch:normal;font-size:16px;font-family:'Liberation Serif';-inkscape-font-specification:'Liberation Serif';letter-spacing:0px;word-spacing:0px;fill:#000000;stroke-linecap:round;paint-order:markers fill stroke"
       x="70.819458"
       y="1028.5789"
       id="text1"><tspan
         sodipodi:role="line"
         id="tspan1"
         x="70.819458"
         y="1028.5789"
         style="font-style:normal;font-variant:normal;font-weight:normal;font-stretch:normal;font-family:'Linux Libertine G';-inkscape-font-specification:'Linux Libertine G'">INKSCAPE 1.3</tspan></text>
  </g>
</svg>
