<?xml version="1.0" encoding="UTF-8" standalone="no"?>
<svg version="1.1" width="128" height="128" xmlns="http://www.w3.org/2000/svg" xmlns:xlink="http://www.w3.org/1999/xlink" xmlns:sodipodi="http://sodipodi.sourceforge.net/DTD/sodipodi-0.dtd" xmlns:inkscape="http://www.inkscape.org/namespaces/inkscape">
<sodipodi:namedview guidetolerance="10.0" gridtolerance="10.0" objecttolerance="10.0" inkscape:current-layer="svg2"/>
<metadata xmlns:dc="http://purl.org/dc/elements/1.1/" xmlns:cc="http://creativecommons.org/ns#" xmlns:rdf="http://www.w3.org/1999/02/22-rdf-syntax-ns#">
<rdf:RDF>
<cc:Work rdf:about="etiquette-icon">
<dc:format>image/svg+xml</dc:format>
<dc:type rdf:resource="http://purl.org/dc/dcmitype/StillImage"/>
<dc:creator>
<cc:Agent>
<dc:title>Andy Fitzsimon</dc:title>
</cc:Agent>
</dc:creator>
<dc:rights>
<cc:Agent>
<dc:title>Andrew Michael Fitzsimon</dc:title>
</cc:Agent>
</dc:rights>
<dc:publisher>
<cc:Agent>
<dc:title>Fitzsimon IT Consulting Pty Ltd</dc:title>
</cc:Agent>
</dc:publisher>
<dc:identifier>http://andy.fitzsimon.com.au</dc:identifier>
<dc:date>2006</dc:date>
<cc:license rdf:resource="http://creativecommons.org/licenses/by-sa/3.0/"/>
<dc:title>Inkscape Logo</dc:title>
<dc:contributor>
<cc:Agent>
<dc:title>Yevhen Babiichuk (DustDFG)</dc:title>
</cc:Agent>
</dc:contributor>
</cc:Work>
</rdf:RDF>
</metadata>
<defs>
<g id="filters" color-interpolation-filters="sRGB">
<filter id="ShadowBlur" filterUnits="userSpaceOnUse" x="0" y="0">
<feGaussianBlur in="SourceAlpha" stdDeviation="3" result="blur"/>
</filter>
<filter inkscape:collect="always" id="b135">
<feGaussianBlur inkscape:collect="always" stdDeviation="1.35"/>
</filter>
<filter inkscape:collect="always" id="b08">
<feGaussianBlur inkscape:collect="always" stdDeviation="0.8"/>
</filter>
<filter inkscape:collect="always" id="b35">
<feGaussianBlur inkscape:collect="always" stdDeviation="3.5"/>
</filter>
<filter inkscape:collect="always" id="b1">
<feGaussianBlur inkscape:collect="always" stdDeviation="1"/>
</filter>
<filter inkscape:collect="always" id="b242">
<feGaussianBlur inkscape:collect="always" stdDeviation="2.42"/>
</filter>
<filter inkscape:collect="always" id="f8906" x="-0.096121542" width="1.1922431" y="-0.31690436" height="1.6338087">
<feGaussianBlur inkscape:collect="always" stdDeviation="0.56515877"/>
</filter>
<filter inkscape:collect="always" id="b04">
<feGaussianBlur inkscape:collect="always" stdDeviation="0.4"/>
</filter>
<filter inkscape:collect="always" id="b03">
<feGaussianBlur inkscape:collect="always" stdDeviation="0.3"/>
</filter>
<filter inkscape:collect="always" id="b06">
<feGaussianBlur inkscape:collect="always" stdDeviation="0.6"/>
</filter>
<filter inkscape:collect="always" id="b035">
<feGaussianBlur inkscape:collect="always" stdDeviation="0.35"/>
</filter>
<filter inkscape:collect="always" id="b033">
<feGaussianBlur inkscape:collect="always" stdDeviation="0.33"/>
</filter>
<filter inkscape:collect="always" id="b18">
<feGaussianBlur inkscape:collect="always" stdDeviation="1.8"/>
</filter>
</g>
<linearGradient id="WhiteTransparent" gradientUnits="userSpaceOnUse">
<stop stop-color="#fff" stop-opacity="1" offset="0"/>
<stop stop-color="#fff" stop-opacity="0" offset="1"/>
</linearGradient>
<linearGradient id="BlackTransparent" gradientUnits="userSpaceOnUse">
<stop stop-color="#000" stop-opacity="1" offset="0"/>
<stop stop-color="#000" stop-opacity="0" offset="1"/>
</linearGradient>
<linearGradient id="liquidShade" xlink:href="#BlackTransparent" x1="0" y1="128" x2="0" y2="64" gradientUnits="userSpaceOnUse"/>
<linearGradient id="liquidSpecular" xlink:href="#WhiteTransparent" x1="0" y1="128" x2="0" y2="76" gradientUnits="userSpaceOnUse"/>
<linearGradient id="sideSpecular" x1="82.12" y1="20" x2="60" y2="40" gradientUnits="userSpaceOnUse">
<stop offset="0" stop-color="#c0cdf9" stop-opacity="1"/>
<stop offset="1" stop-color="#07092d" stop-opacity=".29"/>
</linearGradient>
<linearGradient id="IcecapTip" xlink:href="#WhiteTransparent" x1="60" y1="20" x2="90" y2="50" gradientUnits="userSpaceOnUse"/>
<linearGradient id="shinySpecular" xlink:href="#WhiteTransparent" x1="33" y1="35" x2="58" y2="60" gradientUnits="userSpaceOnUse"/>
<radialGradient inkscape:collect="always" xlink:href="#WhiteTransparent" id="rg9177" gradientUnits="userSpaceOnUse" cx="116.3" cy="250.9" r="30.6" gradientTransform="matrix(.8316 0 0 .5566 -51.71 -25.57)"/>
<radialGradient inkscape:collect="always" xlink:href="#WhiteTransparent" id="rg8574" cx="132.4" cy="252" r="30.6" gradientTransform="matrix(1.06 0 0 .71 -82.1 -64.27)" gradientUnits="userSpaceOnUse"/>
<radialGradient inkscape:collect="always" xlink:href="#WhiteTransparent" id="rg8744" cx="210.2" cy="168.5" r="34.25" gradientTransform="matrix(.5296 0 0 .2242 -11.72 37.6)" gradientUnits="userSpaceOnUse"/>
<radialGradient inkscape:collect="always" xlink:href="#WhiteTransparent" id="rg8768" gradientUnits="userSpaceOnUse" cx="217.5" cy="182.1" r="34.25" gradientTransform="matrix(.5296 0 0 .2242 -11.72 36.67)"/>
<linearGradient inkscape:collect="always" xlink:href="#WhiteTransparent" id="lg8912" x1="110.2" y1="88.6" x2="110.2" y2="92" gradientUnits="userSpaceOnUse"/>
<linearGradient inkscape:collect="always" xlink:href="#WhiteTransparent" id="lg8910" x1="231.3765" y1="195.6213" x2="231.3765" y2="200.0714" gradientUnits="userSpaceOnUse"/>
<linearGradient inkscape:collect="always" xlink:href="#WhiteTransparent" id="lg8990" gradientUnits="userSpaceOnUse" x1="44.7" y1="133" x2="44.74" y2="136.41"/>
<radialGradient inkscape:collect="always" xlink:href="#WhiteTransparent" id="rg8994" gradientUnits="userSpaceOnUse" cx="228.22" cy="204.83" r="14.094" gradientTransform="matrix(.204 -.1036 .0354 .07 48.072 113.12)"/>
<radialGradient inkscape:collect="always" id="rg9004" cx="89.88" cy="187.9" r="22.75" gradientTransform="matrix(.53 0 0 .2156 -11.72 47.45)" gradientUnits="userSpaceOnUse">
<stop stop-color="#fff" stop-opacity=".33" offset="0"/>
<stop stop-color="#fff" stop-opacity="0" offset="1"/>
</radialGradient>
<linearGradient inkscape:collect="always" xlink:href="#WhiteTransparent" id="lg9023" gradientUnits="userSpaceOnUse" x1="3.4" y1="104.15" x2="3.46" y2="106.6"/>
<radialGradient inkscape:collect="always" xlink:href="#WhiteTransparent" id="rg9046" cx="90.28" cy="230.8" r="10.47" gradientTransform="matrix(.628 -.174 .065 .235 -35.49 66.57)" gradientUnits="userSpaceOnUse"/>
<radialGradient inkscape:collect="always" xlink:href="#WhiteTransparent" id="rg8922" cx="228.2" cy="204.8" r="14.09" gradientTransform="matrix(.53 0 0 .07825 -11.72 78.22)" gradientUnits="userSpaceOnUse"/>
<linearGradient inkscape:collect="always"  id="lg5801" x1="57.23" x2="53.63" y1="76.25" y2="84.48" gradientTransform="matrix(.8853 0 0 .8853 5.18 9.23)" gradientUnits="userSpaceOnUse">
<stop stop-color="#eeeeec" stop-opacity="1" offset="0"/>
<stop stop-color="#eeeeec" stop-opacity="0" offset="1"/>
</linearGradient>
<radialGradient inkscape:collect="always" xlink:href="#WhiteTransparent" id="rg5811" cx="181.2" cy="214.6" r="22.47" gradientTransform="matrix(.66 0 0 .8387 -36.92 -82.88)" gradientUnits="userSpaceOnUse"/>
<linearGradient inkscape:collect="always" xlink:href="#WhiteTransparent" id="lg5822" gradientUnits="userSpaceOnUse" x1="30.32" y1="79.21" x2="34.78" y2="82.75"/>
<linearGradient x1="82.45" y1="98.9" x2="69.5" y2="62.1" gradientUnits="userSpaceOnUse" id="lg1030" inkscape:collect="always">
<stop stop-color="#729fcf" stop-opacity="1" offset="0"/>
<stop stop-color="#729fcf" stop-opacity="0" offset="1"/>
</linearGradient>
<linearGradient inkscape:collect="always" xlink:href="#WhiteTransparent" id="lg5905" x1="41" y1="94.3" x2="69" y2="101.8" gradientUnits="userSpaceOnUse"/>
<radialGradient inkscape:collect="always" xlink:href="#WhiteTransparent" id="rg11553" gradientUnits="userSpaceOnUse" gradientTransform="matrix(1.722153,0,0,1.694977,-49.39526,-14.07806)" cx="68.39994" cy="21.22575" r="54.7834"/>
<clipPath clipPathUnits="userSpaceOnUse" id="clipOutline">
<path id="base_shape_path" d="m54.1 12.5-41.2 42.2c-15.6 15.6 10.1 14.3 19.4 20.2 4.3 2.8-13.8 6.4-10.1 10.1 3.6 3.7 21.7 7.1 25.3 10.7 3.6 3.7-7.3 7.6-3.7 11.3 3.5 3.7 11.9 0.2 13.4 8.6 1.1 6.2 15.4 3.1 21.8-2.2 4-3.4-6.9-3.4-3.3-7.1 9-9.1 17-4.1 20.3-12.5 1.8-4.5-13.6-7.7-9.5-10.6 9.8-6.9 45.8-10.4 29.2-27l-42.7-43.7c-5.3-5-14-5-18.9 0zm47.3 81.3c0 2.1 16.3 3.3 15.4-0.5-1.3-6.4-13.6-5.9-15.4 0.5zm-69.5 11.1c3.7 3.2 9.3-0.7 11.1-5.2-3.6-4.7-16.9 0.3-11.1 5.2zm67.5-6.7c-4.6 4.2 0.8 8.6 5.3 5.7 1.2-0.8-0.1-4.7-5.3-5.7z"/>
</clipPath>
<mask id="top_outline_mask" maskUnits="userSpaceOnUse">
<use xlink:href="#base_shape_path" fill="#000" stroke="#fff" stroke-width="3.92"/>
<use xlink:href="#base_shape_path" fill="none" stroke="#000" stroke-width="1.92"/>
</mask>
</defs>
<g transform="matrix(0.9963,0,0,0.9963,0.22,-1.6)">
<g id="base_shape">
<g opacity=".7833" id="base_shape_shadow">
<use xlink:href="#base_shape_path" filter="url(#b08)" transform="translate(0,1)"/>
<use xlink:href="#base_shape_path" opacity=".576" filter="url(#b35)" transform="translate(0,2)"/>
</g>
<use xlink:href="#base_shape_path" fill="#000"/>
<use id="blue_cast" xlink:href="#base_shape_path" opacity=".67" fill="url(#sideSpecular)" filter="url(#b242)" transform="matrix(0.99,0,0,0.99,0.6045,0.6045)" clip-path="url(#clipOutline)"/>
<g filter="url(#b033)">
<use xlink:href="#base_shape_path" mask="url(#top_outline_mask)" fill="url(#rg11553)"/>
</g>
</g>
<g id="ice">
<path id="ice_cap" fill="url(#IcecapTip)" d="m70.5 15.5 16.3 16.6c1.5 1.5 1.5 4.6 0.6 5.5l-8.1-6.6-1.6 9.7-6.7-3.6-10.9 6.9-3.6-14.5-5.8 12.6-14.5-0.1c-2.8 0-2.4-2.9 0.5-5.8 5.7-6.3 16.8-17 20.3-20.7 3.6-3.7 9.9-3.6 13.5 0z"/>
<path id="ice_piece" fill="url(#lg5801)" d="m41.74 78.53c2.23 1.64 6.64 0.65 9.28 1.84 6.35 2.86 14.155 6.045 12.72 0.41l-1.62 1.34-0.03-2.56s-3.75 0.92-3.75 0.92-2.91-2.33-4.24-3.1c-0.28-0.16-1.71 1.29-1.71 1.29l-0.26-1.545c-1.86-0.2-3.7-0.285-5.315-0.27-3.88 0.03-6.5 0.64-5.08 1.68z"/>
</g>
<g id="partial_highlight">
<path opacity=".5" fill="url(#shinySpecular)" d="m16.57 57.04c-11.2 11.1 8.48 7.97 23.61 13.93l31.28-55c-4.74-4.84-10.8-4.44-15.14 0l-39.76 41.07z"/>
<path opacity=".2167" fill="url(#rg9177)" d="m48.13 93.92s1.769 2.7 1.589 3.972c-0.354 2.494-5.725 3.738-4.535 5.959 1.176 2.193 5.414 0.95 8.971 3.244 3.542 2.284 2.59 6.939 5.164 8.11 5.021 2.284 18.21-3.939 17.54-3.807-0.662 0.132-13.01 2.699-15.79 0.448-3.17-2.567-4.079-4.359-6.418-5.877-2.191-1.422-5.27-2-5.986-3.167-0.716-1.164 1.435-2.667 1.584-4.911 0.0893-1.348-2.119-3.972-2.119-3.972z"/>
<path opacity=".2758" fill="url(#rg8574)" filter="url(#b1)" d="m48.13 93.92s1.769 2.7 1.589 3.972c-0.354 2.494-5.725 3.738-4.535 5.959 1.176 2.193 5.414 0.95 8.971 3.244 3.542 2.284 2.59 6.939 5.164 8.11 5.021 2.284 18.21-3.939 17.54-3.807-21.9 0.083-17.81-5.558-26.25-9.269-1.22-0.536-0.513-1.993-0.364-4.237 0.089-1.348-2.119-3.972-2.119-3.972z"/>
<path opacity=".4532" fill="url(#rg8744)" d="m85.34 82.4c19.65-7.23 25.97-8.226 32.44-14.7-7.5 6.33-23.36 9.73-36.28 15.36z"/>
<path opacity=".51" fill="url(#rg8768)" filter="url(#b1)" d="m85.34 81.47c32.36-11.47 26.9-11.4 32.44-14.7-10.3 3.94-29.52 4.36-36.28 15.36z"/>
<path opacity=".325" fill="url(#lg5905)" filter="url(#b18)" d="m40.82 76.28c-2.486 0.73-10.54 3.78-9.4 6.1 1.1 2.23 19.83 3.126 22.71 9.766 1.254 2.9-2.88 5.8-1.83 8.057 0.806 2.29 7.04 8.053 10.98 10.78 3.09 2.136 7.154-1.72 5.5-4.92-2.635-5.09 9-11.33 14.28-14.16 3.08-1.65-6.35-9.766-6.35-9.766s-35.89-5.86-35.89-5.86z"/>
<path opacity=".48" fill="url(#rg5811)" filter="url(#b06)" d="m83.43 83.73c-0.86 3.16 10.56 7.46 9.705 9.644-1.884 4.806-12.2 1.53-20.08 11.6-1.13 1.44 1.59 6.6 1.22 5.98-0.366-0.61-3.16-4.865-2.44-6.96 2.24-6.565 23.93-9.01 19.96-12.15-2.285-1.8-10.5-6.78-8.36-8.12z"/>
<path fill="url(#rg9004)" d="m24.43 84.65c0-0.33 20.57 6.27 24.1 9.8-2.9-2.83-17.56-9.33-19.8-9.4-2.23-0.1-4.04-0.265-4.3-0.4z"/>
<path opacity=".2512" fill="url(#lg5822)" d="m36.7 76.5c-7.15 4.42-18.3 6-6.1 9-1.45-3.2 3.14-2.9 6.1-9z"/>
<path opacity=".3632" fill="url(#lg1030)" filter="url(#b135)" d="m62.06 116.8s11.03-1.04 13.58-4.22c1.49-1.86-5.93-4.035-4.33-5.86 6.03-6.86 11.1-6.58 18.09-9.45 7-2.87 4.41-4.3 2.15-5.54-3.87-2.16-12.5-4.46-9.64-9.6 2.9-5.16 28-12.33 28-12.33 7.62-2.6 6.66-7.3 2.93-11.23l-22.46-22.34s1.115 21.2-3.42 30.28c-5.6 11.23-35.42 23.76-22.95 25.15 4.4 0.5 6.5 2 8.3 5.37 3.7 7-10.25 19.8-10.25 19.8z"/>
<g id="drops_highlight">
<ellipse cx="107.9" cy="90.23" rx="1.25" ry=".519" fill="#fff" opacity=".586"/>
<ellipse cx="109.4" cy="90.64" rx="4.2" ry="1.29" fill="url(#lg8912)" opacity=".286"/>
<ellipse transform="matrix(0.7131486,0,0,1.140781,-54.5779,-134.955)" opacity=".620689" fill="url(#lg8910)" filter="url(#f8906)" cx="229.9375" cy="199.0625" rx="7.9375" ry="2.4375"/>
<path d="m101.7 93.68c2 1.845 13.11 2.79 14.93-0.53-3.57 2.534-11.5 1.64-14.93 0.53z" fill="url(#rg8922)" filter="url(#b04)"/>
<ellipse cx="99.97" cy="99.81" rx=".793" ry=".519" fill="#fff" opacity=".586"/>
<ellipse transform="rotate(-26.89)" cx="44.09" cy="135" rx="1.49" ry="1.632" fill="url(#lg8990)" opacity=".286"/>
<ellipse opacity=".620689" fill="url(#lg8910)" filter="url(#f8906)" transform="matrix(0.2750159,-0.1394397,0.5158824,1.017471,-65.3535,-69.30064)" cx="229.9375" cy="199.0625" rx="7.055552" ry="2.140048"/>
<path d="m98.962 103.57c1.605 1.256 7.643 1.4165 5.352-2.233 0.6 2.858-3.527 2.556-5.352 2.233z" fill="url(#rg8994)" filter="url(#b03)"/>
<ellipse cx="36.06" cy="99.36" rx="1.4" ry=".519" fill="#fff" opacity=".586"/>
<ellipse transform="matrix(.9767 -.2145 .3185 .9479 0 0)" cx="2.6" cy="105.7" rx="3.783" ry="1" fill="url(#lg9023)" opacity=".286"/>
<ellipse transform="matrix(0.62686817,-0.13763476,0.2667535,0.79390315,-160.70562,-25.755028)" opacity=".620689" fill="url(#lg8910)" filter="url(#f8906)" cx="229.9375" cy="199.0625" rx="7.9375" ry="2.4375"/>
<path opacity=".6158" fill="url(#rg9046)" filter="url(#b035)" d="m31.01 102.1s1.114 2.993 4.171 3.145c3.093 0.1536 6.622-3.711 6.919-5.098-0.5296 1.192-3.491 4.784-7.316 4.734-2.171-0.0286-3.774-2.781-3.774-2.781z"/>
</g>
</g>
</g>
</svg>
