<svg width="16" height="16" version="1.1" viewBox="0 0 16 16" xmlns="http://www.w3.org/2000/svg">
  <path d="m8 0c-4.4064 0-8 3.5936-8 8 0 4.4064 3.5936 8 8 8 4.4064 0 8-3.5936 8-8 0-4.4064-3.5936-8-8-8zm-1 2.084v5.502l-3.8926 3.8926c-0.69625-0.98003-1.1074-2.1788-1.1074-3.4785 0-2.9843 2.1547-5.4426 5-5.916zm2 0c2.8453 0.47339 5 2.9317 5 5.916 0 1.2997-0.41117 2.4985-1.1074 3.4785l-3.8926-3.8926v-5.502zm-2 8.3301v3.502c-0.91387-0.15204-1.7558-0.50997-2.4785-1.0234l2.4785-2.4785zm2 0 2.4785 2.4785c-0.72275 0.51347-1.5646 0.87139-2.4785 1.0234v-3.502z" style="paint-order:stroke fill markers"/>
</svg>
